<svg xmlns="http://www.w3.org/2000/svg" width="1200" height="630" viewBox="0 0 1200 630" role="img" aria-labelledby="title desc">
  <title id="title">你是哪一種職場韌力角色？</title>
  <desc id="desc">職場韌力角色心理測驗社群分享封面</desc>
  <defs>
    <linearGradient id="background" x1="0" y1="0" x2="1" y2="1">
      <stop offset="0" stop-color="#f8f3e9"/>
      <stop offset=".58" stop-color="#f3efe6"/>
      <stop offset="1" stop-color="#dcecea"/>
    </linearGradient>
    <filter id="shadow" x="-30%" y="-30%" width="160%" height="160%">
      <feDropShadow dx="0" dy="18" stdDeviation="24" flood-color="#173742" flood-opacity=".14"/>
    </filter>
  </defs>
  <rect width="1200" height="630" fill="url(#background)"/>
  <circle cx="1080" cy="30" r="260" fill="#79aaa5" opacity=".16"/>
  <circle cx="50" cy="620" r="235" fill="#e5b45d" opacity=".15"/>
  <path d="M-40 584c180-48 310 46 485-3s310 34 470-10 260 18 360-20" fill="none" stroke="#2f7777" stroke-width="5" opacity=".13"/>
  <rect x="62" y="54" width="1076" height="522" rx="44" fill="#fff" fill-opacity=".55" stroke="#fff" stroke-opacity=".8" filter="url(#shadow)"/>
  <g transform="translate(92 88)">
    <circle cx="35" cy="35" r="35" fill="#dff2ef"/>
    <circle cx="35" cy="24" r="7" fill="#174f55"/>
    <path d="M16 44c7-11 13-11 20 0s13 11 20 0M19 53c6-6 11-6 17 0s11 6 17 0" fill="none" stroke="#174f55" stroke-width="5" stroke-linecap="round"/>
    <text x="88" y="27" font-family="Noto Sans T Chinese, Microsoft JhengHei, sans-serif" font-size="24" font-weight="700" fill="#173742" letter-spacing="3">職場韌力</text>
    <text x="88" y="57" font-family="Noto Sans T Chinese, Microsoft JhengHei, sans-serif" font-size="17" fill="#63777b" letter-spacing="5">角色心理測驗</text>
  </g>
  <text x="92" y="250" font-family="Noto Sans T Chinese, Microsoft JhengHei, sans-serif" font-size="34" font-weight="700" fill="#2f7777" letter-spacing="3">5 題 · 約 2 分鐘 · 不收集資料</text>
  <text x="92" y="345" font-family="Noto Sans T Chinese, Microsoft JhengHei, sans-serif" font-size="70" font-weight="900" fill="#173742">你是哪一種</text>
  <text x="92" y="438" font-family="Noto Sans T Chinese, Microsoft JhengHei, sans-serif" font-size="78" font-weight="900" fill="#174f55">職場韌力角色？</text>
  <text x="94" y="510" font-family="Noto Sans T Chinese, Microsoft JhengHei, sans-serif" font-size="25" fill="#52696e">從五個職場情境，找到你面對壓力時較常運用的力量。</text>
  <g transform="translate(855 146)">
    <circle cx="140" cy="150" r="150" fill="#fff" fill-opacity=".58" stroke="#2f7777" stroke-opacity=".18"/>
    <circle cx="140" cy="150" r="86" fill="#174f55"/>
    <text x="140" y="139" text-anchor="middle" font-family="Noto Sans T Chinese, Microsoft JhengHei, sans-serif" font-size="18" fill="#fff" fill-opacity=".72">你的</text>
    <text x="140" y="180" text-anchor="middle" font-family="Noto Sans T Chinese, Microsoft JhengHei, sans-serif" font-size="40" font-weight="800" fill="#fff">韌力</text>
    <circle cx="140" cy="-2" r="43" fill="#dff2ef" stroke="#2f7777" stroke-opacity=".22"/>
    <circle cx="278" cy="110" r="43" fill="#fff0cf" stroke="#c4841d" stroke-opacity=".22"/>
    <circle cx="227" cy="267" r="43" fill="#def1f7" stroke="#2e86a5" stroke-opacity=".22"/>
    <circle cx="53" cy="267" r="43" fill="#fae7e3" stroke="#c96557" stroke-opacity=".22"/>
    <circle cx="2" cy="110" r="43" fill="#eee9f8" stroke="#7467a5" stroke-opacity=".22"/>
  </g>
</svg>
