<svg xmlns="http://www.w3.org/2000/svg" xmlns:xlink="http://www.w3.org/1999/xlink" width="1200" height="630" viewBox="0 0 1200 630" role="img" aria-labelledby="title desc">
  <title id="title">你是哪一種職場韌力角色？</title>
  <desc id="desc">深藍與金色圖卡風格的職場韌力角色心理測驗社群分享封面</desc>
  <defs>
    <linearGradient id="bg" x1="0" y1="0" x2="1" y2="1">
      <stop offset="0" stop-color="#071d38"/>
      <stop offset="0.58" stop-color="#12355f"/>
      <stop offset="1" stop-color="#081c35"/>
    </linearGradient>
    <radialGradient id="glow" cx="50%" cy="50%" r="50%">
      <stop offset="0" stop-color="#f3d28d" stop-opacity="0.56"/>
      <stop offset="1" stop-color="#f3d28d" stop-opacity="0"/>
    </radialGradient>
    <linearGradient id="gold" x1="0" y1="0" x2="1" y2="1">
      <stop offset="0" stop-color="#f5dea9"/>
      <stop offset="0.48" stop-color="#bd8741"/>
      <stop offset="1" stop-color="#f0ce84"/>
    </linearGradient>
    <filter id="shadow" x="-35%" y="-35%" width="170%" height="190%">
      <feDropShadow dx="0" dy="20" stdDeviation="18" flood-color="#000b17" flood-opacity="0.58"/>
    </filter>
    <clipPath id="card-clip">
      <rect width="230" height="345" rx="14"/>
    </clipPath>
    <style>
      @import url("fonts/fonts.css");
      .serif { font-family: "Noto Serif TC Variable", "Noto Serif TC", serif; }
      .sans { font-family: "Noto Sans TC Variable", "Noto Sans TC", sans-serif; }
    </style>
  </defs>

  <rect width="1200" height="630" fill="url(#bg)"/>
  <circle cx="988" cy="305" r="292" fill="url(#glow)"/>
  <g fill="#f5dfa7" opacity="0.72">
    <circle cx="104" cy="92" r="3"/><circle cx="182" cy="62" r="2"/><circle cx="714" cy="82" r="3"/>
    <circle cx="1095" cy="104" r="2"/><circle cx="1142" cy="510" r="3"/><circle cx="676" cy="548" r="2"/>
  </g>

  <rect x="23" y="23" width="1154" height="584" rx="34" fill="none" stroke="url(#gold)" stroke-width="5"/>
  <rect x="37" y="37" width="1126" height="556" rx="25" fill="none" stroke="#f1d79d" stroke-opacity="0.6" stroke-width="1.5"/>
  <path d="M55 101V66h35M1145 101V66h-35M55 529v35h35M1145 529v35h-35" fill="none" stroke="#edce8d" stroke-width="5" stroke-linecap="round"/>

  <g transform="translate(79 70)">
    <circle cx="31" cy="31" r="30" fill="url(#gold)"/>
    <path d="M15 34c7-10 14-10 21 0s14 10 21 0M19 43c6-5 11-5 17 0s11 5 17 0" fill="none" stroke="#071d38" stroke-width="4.8" stroke-linecap="round"/>
    <circle cx="31" cy="20" r="5.5" fill="#071d38"/>
    <text class="sans" x="77" y="24" font-size="22" font-weight="800" fill="#fff8e8" letter-spacing="4">職場韌力</text>
    <text class="sans" x="77" y="51" font-size="15" font-weight="600" fill="#e7ce9f" letter-spacing="5">角色心理測驗</text>
  </g>

  <g transform="translate(82 185)">
    <text class="sans" x="0" y="0" font-size="22" font-weight="800" fill="#e8c982" letter-spacing="3">5 題 · 約 2 分鐘 · 全程本機作答</text>
    <text class="serif" x="0" y="87" font-size="66" font-weight="900" fill="#fff9ec">找到你的</text>
    <text class="serif" x="0" y="174" font-size="76" font-weight="900" fill="#f3d28d">職場韌力角色</text>
    <path d="M0 202h485" stroke="url(#gold)" stroke-width="3"/>
    <text class="sans" x="0" y="249" font-size="23" font-weight="600" fill="#f8ead0">從五個職場情境，看看你面對壓力時</text>
    <text class="sans" x="0" y="286" font-size="23" font-weight="600" fill="#f8ead0">最常運用哪一種力量找回步調。</text>
  </g>

  <g filter="url(#shadow)">
    <g transform="translate(745 157) rotate(-8 115 172.5)" opacity="0.9">
      <rect width="230" height="345" rx="16" fill="#fff2d4" stroke="#edc77f" stroke-width="4"/>
      <image xlink:href="cards/coral-preview.webp" width="230" height="345" preserveAspectRatio="xMidYMid slice" clip-path="url(#card-clip)"/>
    </g>
    <g transform="translate(936 151) rotate(9 115 172.5)" opacity="0.92">
      <rect width="230" height="345" rx="16" fill="#fff2d4" stroke="#edc77f" stroke-width="4"/>
      <image xlink:href="cards/breeze-preview.webp" width="230" height="345" preserveAspectRatio="xMidYMid slice" clip-path="url(#card-clip)"/>
    </g>
    <g transform="translate(843 116)">
      <rect width="230" height="345" rx="16" fill="#fff2d4" stroke="#f3d28d" stroke-width="5"/>
      <image xlink:href="cards/harbor-preview.webp" width="230" height="345" preserveAspectRatio="xMidYMid slice" clip-path="url(#card-clip)"/>
    </g>
  </g>

  <g transform="translate(1032 485)">
    <circle cx="0" cy="0" r="59" fill="#071d38" stroke="url(#gold)" stroke-width="4"/>
    <text class="serif" x="0" y="-5" text-anchor="middle" font-size="16" font-weight="800" fill="#f3d28d">EAP</text>
    <text class="sans" x="0" y="21" text-anchor="middle" font-size="13" font-weight="800" fill="#fff8e8" letter-spacing="2">韌力卡</text>
  </g>
  <text class="sans" x="82" y="572" font-size="17" font-weight="700" fill="#d9c49e" letter-spacing="2">完成後取得專屬圖卡，可直接分享或下載收藏</text>
</svg>
